<svg width="40" height="40" viewBox="0 0 40 40" fill="none" xmlns="http://www.w3.org/2000/svg">
<path d="M20 40C31.0457 40 40 31.0457 40 20C40 8.95431 31.0457 0 20 0C8.95431 0 0 8.95431 0 20C0 31.0457 8.95431 40 20 40Z" fill="#3B5998"/>
<path d="M11.5473 13.024H7.97854V26.0983H2.57157V13.024H9.79209e-08V8.42918H2.57157V5.45581C2.57157 3.32953 3.58159 1.74082e-07 8.02667 1.74082e-07L12.0318 0.0167562V4.47681H9.12582C8.64915 4.47681 7.97889 4.71496 7.97889 5.72926V8.43346H12.0197L11.5473 13.024Z" transform="translate(13.4807 7.75879)" fill="white"/>
</svg>
