<svg width="24" height="22" viewBox="0 0 24 22" fill="none" xmlns="http://www.w3.org/2000/svg">
<path d="M1.64886 3.29771C2.55949 3.29771 3.29771 2.55949 3.29771 1.64885C3.29771 0.738217 2.55949 0 1.64886 0C0.738218 0 0 0.738217 0 1.64885C0 2.55949 0.738218 3.29771 1.64886 3.29771Z" transform="translate(7.39694 5.24426)" fill="black"/>
<path d="M22.5802 12.9618C21.8015 12.229 20.8168 11.7481 19.7405 11.6107V3.22901C19.7405 2.33588 19.374 1.53435 18.8015 0.938931C18.2061 0.343512 17.4046 0 16.5114 0H3.22901C2.33588 0 1.53435 0.366412 0.938931 0.938931C0.343511 1.53435 0 2.33588 0 3.22901V13.7863V14.771V16.9008C0 17.7939 0.366412 18.5954 0.938931 19.1908C1.53435 19.7863 2.33588 20.1298 3.22901 20.1298H16.0763C16.9237 20.8168 17.9771 21.2519 19.145 21.2519C20.4962 21.2519 21.7099 20.7023 22.5802 19.8321C23.4504 18.9618 24 17.7481 24 16.3969C24 15.0458 23.4504 13.8321 22.5802 12.9618ZM1.21374 3.22901C1.21374 2.67939 1.44275 2.17557 1.80916 1.83206C2.17557 1.46565 2.67939 1.23664 3.22901 1.23664H16.5114C17.0611 1.23664 17.5649 1.46565 17.9313 1.83206C18.2977 2.19847 18.5267 2.70229 18.5267 3.25191V10.3969L15.1374 7.00763C14.9084 6.77863 14.5191 6.75572 14.2672 7.00763L9.16031 12.1374L5.70229 8.65649C5.47328 8.42748 5.08397 8.40458 4.83206 8.65649L1.21374 12.3206V3.22901ZM3.20611 18.9618V18.916C2.65649 18.916 2.15267 18.687 1.78626 18.3206C1.44275 17.9542 1.21374 17.4504 1.21374 16.9008V14.771V14.0611L5.26718 9.98473L8.72519 13.4427C8.9542 13.6718 9.34351 13.6718 9.59542 13.4427L14.7023 8.31298L18.0458 11.6794C17.9771 11.7023 17.9084 11.7252 17.8397 11.7481C17.7481 11.771 17.6565 11.7939 17.542 11.8397C17.4504 11.8626 17.3588 11.9084 17.2672 11.9313C17.1985 11.9542 17.1527 11.9771 17.084 12.0229C16.9924 12.0687 16.9237 12.0916 16.855 12.1374C16.7405 12.2061 16.626 12.2748 16.5114 12.3435C16.4427 12.3893 16.3969 12.4122 16.3282 12.458C16.2824 12.4809 16.2595 12.5038 16.2137 12.5267C16.0076 12.6641 15.8244 12.8244 15.6641 13.0076C14.7939 13.8779 14.2443 15.0916 14.2443 16.4427C14.2443 16.7863 14.2901 17.1069 14.3588 17.4504C14.3817 17.542 14.4046 17.6107 14.4275 17.7023C14.4962 17.9313 14.5649 18.1603 14.6565 18.3893V18.4122C14.7481 18.5954 14.8397 18.8015 14.9542 18.9618H3.20611ZM21.687 18.9618C21.0229 19.626 20.1298 20.0153 19.1221 20.0153C18.1603 20.0153 17.2672 19.626 16.626 19.0076C16.5344 18.916 16.4427 18.8015 16.3511 18.7099C16.2824 18.6412 16.2137 18.5496 16.145 18.4809C16.0534 18.3664 15.9847 18.229 15.916 18.0916C15.8702 18 15.8244 17.9313 15.7786 17.8397C15.7328 17.7252 15.687 17.5878 15.6641 17.4504C15.6412 17.3588 15.5954 17.2443 15.5725 17.1527C15.5267 16.9237 15.5038 16.6718 15.5038 16.4198C15.5038 15.4122 15.916 14.5191 16.5573 13.855C17.1985 13.1908 18.1145 12.8015 19.1221 12.8015C20.1298 12.8015 21.0229 13.2137 21.687 13.855C22.3511 14.5191 22.7405 15.4122 22.7405 16.4198C22.7405 17.4046 22.3282 18.2977 21.687 18.9618Z" fill="black"/>
<path d="M2.46183 0.183207C2.41603 0.137405 2.34733 0.0916041 2.25572 0.0458026C2.18702 0.0229018 2.11832 0 2.04962 0C2.02672 0 2.02672 0 2.02672 0C2.00382 0 2.00382 0 2.00382 0C1.93511 0 1.86641 0.0229018 1.79771 0.0458026C1.72901 0.0687033 1.6603 0.114505 1.5916 0.183207L0.171756 1.60305C-0.0572519 1.83206 -0.0572519 2.22137 0.171756 2.47328C0.400763 2.70229 0.790075 2.70229 1.04198 2.47328L1.4084 2.10687V4.62596C1.4084 4.96947 1.68321 5.24428 2.02672 5.24428C2.37023 5.24428 2.64504 4.96947 2.64504 4.62596V2.10687L3.01145 2.47328C3.24046 2.70229 3.62977 2.70229 3.88168 2.47328C4.11069 2.24428 4.11069 1.85496 3.88168 1.60305L2.46183 0.183207Z" transform="translate(17.0954 13.7633)" fill="black"/>
</svg>
