<svg width="134" height="28" viewBox="0 0 134 28" fill="none" xmlns="http://www.w3.org/2000/svg">
<path d="M12.0469 17H10.0156L8.07812 10.1875C7.99479 9.89062 7.89062 9.46354 7.76562 8.90625C7.64062 8.34375 7.5651 7.95312 7.53906 7.73438C7.48698 8.06771 7.40104 8.5 7.28125 9.03125C7.16667 9.5625 7.07031 9.95833 6.99219 10.2188L5.10156 17H3.07031L1.59375 11.2812L0.09375 5.57812H2L3.63281 12.2344C3.88802 13.3021 4.07031 14.2448 4.17969 15.0625C4.23698 14.6198 4.32292 14.125 4.4375 13.5781C4.55208 13.0312 4.65625 12.5885 4.75 12.25L6.60938 5.57812H8.46094L10.3672 12.2812C10.5495 12.901 10.7422 13.8281 10.9453 15.0625C11.0234 14.3177 11.2109 13.3698 11.5078 12.2188L13.1328 5.57812H15.0234L12.0469 17ZM21.8594 17L21.4922 15.7969H21.4297C21.013 16.3229 20.5938 16.6823 20.1719 16.875C19.75 17.0625 19.2083 17.1562 18.5469 17.1562C17.6979 17.1562 17.0339 16.9271 16.5547 16.4688C16.0807 16.0104 15.8438 15.362 15.8438 14.5234C15.8438 13.6328 16.1745 12.9609 16.8359 12.5078C17.4974 12.0547 18.5052 11.8073 19.8594 11.7656L21.3516 11.7188V11.2578C21.3516 10.7057 21.2214 10.2943 20.9609 10.0234C20.7057 9.7474 20.3073 9.60938 19.7656 9.60938C19.3229 9.60938 18.8984 9.67448 18.4922 9.80469C18.0859 9.9349 17.6953 10.0885 17.3203 10.2656L16.7266 8.95312C17.1953 8.70833 17.7083 8.52344 18.2656 8.39844C18.8229 8.26823 19.349 8.20312 19.8438 8.20312C20.9427 8.20312 21.7708 8.44271 22.3281 8.92188C22.8906 9.40104 23.1719 10.1536 23.1719 11.1797V17H21.8594ZM19.125 15.75C19.7917 15.75 20.3255 15.5651 20.7266 15.1953C21.1328 14.8203 21.3359 14.2969 21.3359 13.625V12.875L20.2266 12.9219C19.362 12.9531 18.7318 13.099 18.3359 13.3594C17.9453 13.6146 17.75 14.0078 17.75 14.5391C17.75 14.9245 17.8646 15.224 18.0938 15.4375C18.3229 15.6458 18.6667 15.75 19.125 15.75ZM28.9531 15.6719C29.401 15.6719 29.849 15.6016 30.2969 15.4609V16.8438C30.0938 16.9323 29.8307 17.0052 29.5078 17.0625C29.1901 17.125 28.8594 17.1562 28.5156 17.1562C26.776 17.1562 25.9062 16.2396 25.9062 14.4062V9.75H24.7266V8.9375L25.9922 8.26562L26.6172 6.4375H27.75V8.35938H30.2109V9.75H27.75V14.375C27.75 14.8177 27.8594 15.1458 28.0781 15.3594C28.3021 15.5677 28.5938 15.6719 28.9531 15.6719ZM35.5156 17.1562C34.2083 17.1562 33.2135 16.776 32.5312 16.0156C31.8542 15.25 31.5156 14.1536 31.5156 12.7266C31.5156 11.2734 31.8698 10.1562 32.5781 9.375C33.2917 8.59375 34.3203 8.20312 35.6641 8.20312C36.5755 8.20312 37.3958 8.3724 38.125 8.71094L37.5703 10.1875C36.7943 9.88542 36.1536 9.73438 35.6484 9.73438C34.1536 9.73438 33.4062 10.7266 33.4062 12.7109C33.4062 13.6797 33.5911 14.4089 33.9609 14.8984C34.3359 15.3828 34.8828 15.625 35.6016 15.625C36.4193 15.625 37.1927 15.4219 37.9219 15.0156V16.6172C37.5938 16.8099 37.2422 16.9479 36.8672 17.0312C36.4974 17.1146 36.0469 17.1562 35.5156 17.1562ZM47.5547 17H45.7109V11.6875C45.7109 11.0208 45.5755 10.5234 45.3047 10.1953C45.0391 9.86719 44.6146 9.70312 44.0312 9.70312C43.2604 9.70312 42.6927 9.9349 42.3281 10.3984C41.9688 10.8568 41.7891 11.6276 41.7891 12.7109V17H39.9531V4.84375H41.7891V7.92969C41.7891 8.42448 41.7578 8.95312 41.6953 9.51562H41.8125C42.0625 9.09896 42.4089 8.77604 42.8516 8.54688C43.2995 8.31771 43.8203 8.20312 44.4141 8.20312C46.5078 8.20312 47.5547 9.25781 47.5547 11.3672V17ZM56.2344 17L52.9531 8.35938H54.8906L56.6484 13.3828C56.9505 14.2266 57.1328 14.9089 57.1953 15.4297H57.2578C57.3047 15.0547 57.487 14.3724 57.8047 13.3828L59.5625 8.35938H61.5156L58.2188 17H56.2344ZM64.6641 17H62.8281V8.35938H64.6641V17ZM62.7188 6.07031C62.7188 5.74219 62.8073 5.48958 62.9844 5.3125C63.1667 5.13542 63.4245 5.04688 63.7578 5.04688C64.0807 5.04688 64.3307 5.13542 64.5078 5.3125C64.6901 5.48958 64.7812 5.74219 64.7812 6.07031C64.7812 6.38281 64.6901 6.63021 64.5078 6.8125C64.3307 6.98958 64.0807 7.07812 63.7578 7.07812C63.4245 7.07812 63.1667 6.98958 62.9844 6.8125C62.8073 6.63021 62.7188 6.38281 62.7188 6.07031ZM70.2109 17.1562C69.1328 17.1562 68.2917 16.7656 67.6875 15.9844C67.0833 15.2031 66.7812 14.1068 66.7812 12.6953C66.7812 11.2786 67.0859 10.1771 67.6953 9.39062C68.3099 8.59896 69.1589 8.20312 70.2422 8.20312C71.3776 8.20312 72.2422 8.6224 72.8359 9.46094H72.9297C72.8411 8.84115 72.7969 8.35156 72.7969 7.99219V4.84375H74.6406V17H73.2031L72.8828 15.8672H72.7969C72.2083 16.7266 71.3464 17.1562 70.2109 17.1562ZM70.7031 15.6719C71.4583 15.6719 72.0078 15.4609 72.3516 15.0391C72.6953 14.612 72.8724 13.9219 72.8828 12.9688V12.7109C72.8828 11.6224 72.7057 10.849 72.3516 10.3906C71.9974 9.93229 71.4427 9.70312 70.6875 9.70312C70.0417 9.70312 69.5443 9.96615 69.1953 10.4922C68.8464 11.013 68.6719 11.7578 68.6719 12.7266C68.6719 13.6849 68.8411 14.4167 69.1797 14.9219C69.5182 15.4219 70.026 15.6719 70.7031 15.6719ZM81.0391 17.1562C79.6953 17.1562 78.6432 16.7656 77.8828 15.9844C77.1276 15.1979 76.75 14.1172 76.75 12.7422C76.75 11.3307 77.1016 10.2214 77.8047 9.41406C78.5078 8.60677 79.474 8.20312 80.7031 8.20312C81.8438 8.20312 82.7448 8.54948 83.4062 9.24219C84.0677 9.9349 84.3984 10.888 84.3984 12.1016V13.0938H78.6406C78.6667 13.9323 78.8932 14.5781 79.3203 15.0312C79.7474 15.4792 80.349 15.7031 81.125 15.7031C81.6354 15.7031 82.1094 15.6562 82.5469 15.5625C82.9896 15.4635 83.4635 15.3021 83.9688 15.0781V16.5703C83.5208 16.7839 83.0677 16.9349 82.6094 17.0234C82.151 17.112 81.6276 17.1562 81.0391 17.1562ZM80.7031 9.59375C80.1198 9.59375 79.651 9.77865 79.2969 10.1484C78.9479 10.5182 78.7396 11.0573 78.6719 11.7656H82.5938C82.5833 11.0521 82.4115 10.513 82.0781 10.1484C81.7448 9.77865 81.2865 9.59375 80.7031 9.59375ZM94.1484 12.6641C94.1484 14.0755 93.7865 15.1771 93.0625 15.9688C92.3385 16.7604 91.3307 17.1562 90.0391 17.1562C89.2318 17.1562 88.5182 16.974 87.8984 16.6094C87.2786 16.2448 86.8021 15.7214 86.4688 15.0391C86.1354 14.3568 85.9688 13.5651 85.9688 12.6641C85.9688 11.263 86.3281 10.1693 87.0469 9.38281C87.7656 8.59635 88.7786 8.20312 90.0859 8.20312C91.3359 8.20312 92.3255 8.60677 93.0547 9.41406C93.7839 10.2161 94.1484 11.2995 94.1484 12.6641ZM87.8594 12.6641C87.8594 14.6589 88.5964 15.6562 90.0703 15.6562C91.5286 15.6562 92.2578 14.6589 92.2578 12.6641C92.2578 10.6901 91.5234 9.70312 90.0547 9.70312C89.2839 9.70312 88.724 9.95833 88.375 10.4688C88.0312 10.9792 87.8594 11.7109 87.8594 12.6641Z" transform="translate(0 3)" fill="#E07700"/>
<path d="M8.65143 5.37993L0.931429 0.0999373C0.691429 -0.0772054 0.0514286 -0.0772051 0 0.591366V11.1514C0.0571429 11.8199 0.708572 11.8314 0.931429 11.6428L8.65143 6.36279C8.85143 6.24279 9.12572 5.75136 8.65143 5.37993ZM1.19429 10.0256V1.71708L7.25714 5.87136L1.19429 10.0256Z" transform="translate(116.96 8.12885)" fill="#E07700"/>
<path d="M14 0C6.28 0 0 6.28 0 14C0 21.72 6.28 28 14 28C21.72 28 28 21.72 28 14C28 6.28 21.72 0 14 0ZM14 26.8057C6.93714 26.8057 1.19429 21.0629 1.19429 14C1.19429 6.93714 6.93714 1.19429 14 1.19429C21.0629 1.19429 26.8057 6.93714 26.8057 14C26.8057 21.0629 21.0629 26.8057 14 26.8057Z" transform="translate(106)" fill="#E07700"/>
</svg>
