<svg width="40" height="40" viewBox="0 0 40 40" fill="none" xmlns="http://www.w3.org/2000/svg">
<path d="M20 40C31.0457 40 40 31.0457 40 20C40 8.95431 31.0457 0 20 0C8.95431 0 0 8.95431 0 20C0 31.0457 8.95431 40 20 40Z" fill="#55ACEE"/>
<path d="M23.3014 2.24179C22.4443 2.62184 21.5223 2.87889 20.5555 2.99369C21.5427 2.40222 22.3003 1.46636 22.6578 0.349388C21.7341 0.897358 20.7105 1.29488 19.6221 1.50915C18.75 0.580413 17.5076 -4.35204e-08 16.1318 -4.35204e-08C13.4921 -4.35204e-08 11.3512 2.1409 11.3512 4.78056C11.3512 5.15526 11.3936 5.51998 11.4756 5.87008C7.50258 5.67079 3.97982 3.76769 1.6218 0.874541C1.21038 1.58045 0.974366 2.40222 0.974366 3.27819C0.974366 4.93636 1.81896 6.40023 3.101 7.2573C2.31773 7.2327 1.58009 7.01772 0.935862 6.65871C0.935506 6.67903 0.935506 6.69935 0.935506 6.71931C0.935506 9.03562 2.58405 10.9676 4.77058 11.4065C4.36985 11.5163 3.94666 11.5744 3.51136 11.5744C3.20261 11.5744 2.90349 11.5448 2.61186 11.4892C3.22008 13.388 4.98521 14.7702 7.07761 14.8091C5.44119 16.0915 3.38016 16.8555 1.13979 16.8555C0.75475 16.8555 0.373276 16.833 2.28482e-07 16.7885C2.11451 18.1454 4.62797 18.9365 7.32753 18.9365C16.1207 18.9365 20.9294 11.6521 20.9294 5.33424C20.9294 5.1271 20.9248 4.92067 20.9155 4.71603C21.8503 4.04221 22.6607 3.20047 23.3014 2.24179Z" transform="translate(8.94934 12.1316)" fill="#F1F2F2"/>
</svg>
